PathFileType	4	(X/Y/Z)	C:/Users/beibeiliu/ov580/test_trc/User2\sequence.28_training_dense_right.trc
DataRate	CameraRate	NumFrames	NumMarkers	Units	OrigDataRate	OrigDataStartFrame	OrigNumFrames
120	120	8	19	mm	120	1	256
Frame#	Time	ThumbCMC			ThumbMCP			ThumbIP			ThumbTip			IndexMCP			IndexPIP			IndexTip			MiddleMCP			MiddlePIP			MiddleTip			RingMCP			RingPIP			RingTip			PinkyMCP			PinkyPIP			PinkyTip			BackHand1			BackHand2			BackHand3	
		X0	Y0	Z0	X1	Y1	Z1	X2	Y2	Z2	X3	Y3	Z3	X4	Y4	Z4	X5	Y5	Z5	X6	Y6	Z6	X7	Y7	Z7	X8	Y8	Z8	X9	Y9	Z9	X10	Y10	Z10	X11	Y11	Z11	X12	Y12	Z12	X13	Y13	Z13	X14	Y14	Z14	X15	Y15	Z15	X16	Y16	Z16	X17	Y17	Z17	X18	Y18	Z18	
0	0	55.7877	-40.1211	94.0327	27.0073	-61.7164	73.6113	16.9492	-79.3357	42.53	21.0197	-90.5256	18.358	41.6338	-21.2957	14.4603	28.4067	-49.9596	-2.36114	28.2382	-79.0492	8.79218	70.058	-8.57258	2.81379	53.9218	-5.48568	-24.4736	44.3379	-4.80284	-55.1003	95.1167	-18.8519	1.46598	91.3089	-12.7586	-25.0709	88.8743	-5.04915	-52.4347	116.853	-40.1432	9.16828	122.766	-38.5367	-15.731	130.022	-33.1515	-34.8239	110.69	-24.3324	52.9985	122.449	-22.0271	85.5367	85.6216	-11.7926	80.6362	
1	0.00833333	51.9617	-40.1312	90.2807	30.698	-60.8708	74.703	17.2005	-77.9034	41.7485	14.1661	-91.8548	20.6216	40.8545	-23.5242	15.4258	25.3051	-50.9839	-1.63671	31.6564	-83.7058	8.61297	66.4103	-9.2897	5.48817	51.1576	-6.24477	-27.5216	43.1445	-4.79993	-56.2166	91.6375	-18.3869	-0.0760719	94.8772	-16.7774	-23.2488	87.4404	-5.84461	-50.9297	115.594	-41.2884	9.90991	122.836	-39.2609	-16.185	126.921	-31.6614	-37.393	109.495	-24.8952	53.5715	121.372	-23.1084	85.4316	83.4291	-10.5507	78.3159	
2	0.0166667	51.8714	-40.5616	95.5832	30.9191	-60.9969	71.9728	15.3044	-78.041	42.5749	14.6111	-89.874	20.6497	40.285	-25.4959	15.0242	24.6362	-49.6074	0.0884686	30.7525	-83.372	5.61032	63.8248	-9.78051	0.294794	50.8804	-8.26369	-27.3866	43.0364	-7.21258	-58.0777	94.2601	-20.5514	0.0394725	90.8932	-17.1588	-22.4901	88.2583	-8.92379	-50.6812	116.03	-40.0787	8.83162	122.397	-41.7491	-13.8145	127.513	-33.9279	-32.963	109.541	-24.5067	52.2639	122.934	-22.2606	81.9025	85.1758	-10.7884	78.972	
3	0.025	50.2863	-40.3879	92.1835	28.7975	-61.257	73.7463	16.2082	-77.4076	40.1204	12.2443	-91.1136	18.7614	39.291	-25.7383	16.4454	25.2284	-55.4752	-0.695169	31.4246	-86.6016	3.50813	68.7664	-12.3791	-0.733263	54.8885	-11.7804	-31.2921	47.0895	-11.8372	-58.6294	93.6338	-19.9947	-1.92644	93.1163	-17.4616	-27.4977	88.469	-11.3429	-52.598	116.473	-41.3187	9.5648	121.711	-43.0532	-12.449	130.888	-34.5768	-36.8075	107.616	-22.3388	52.6091	121.92	-24.3257	84.4241	80.5039	-10.6848	76.0969	
4	0.0333333	49.0779	-39.5362	90.5076	30.105	-60.5801	71.4523	16.3158	-76.7542	40.1575	14.0442	-90.2668	16.8089	40.0707	-28.8396	11.9871	25.4332	-52.7238	-1.80661	29.7255	-86.1453	-0.475055	67.0493	-13.9834	2.92869	54.7235	-15.5837	-31.4536	47.6501	-14.4356	-56.8648	94.4816	-25.0874	1.63546	91.3127	-21.6165	-28.884	90.2809	-16.1321	-55.3531	117.95	-45.6863	11.445	123.19	-45.1249	-17.262	130.196	-41.6243	-39.2672	109.295	-24.9054	55.1786	125.099	-24.1311	83.4115	86.8633	-13.1028	77.4835	
5	0.0416667	50.2744	-38.9561	87.8138	33.0851	-59.3246	68.824	19.7635	-75.8827	42.3323	16.2376	-89.0248	18.3491	40.8279	-27.783	12.6839	30.9306	-53.1327	-6.40975	21.3996	-85.3898	-5.26499	72.9787	-17.4029	-0.331134	63.9043	-19.3275	-31.2917	54.8244	-18.6366	-57.7221	94.6837	-29.0582	-3.59475	96.0746	-31.1263	-28.2729	89.2225	-29.0493	-54.0236	119.745	-50.3509	6.90345	119.84	-53.1937	-15.2331	129.209	-52.5027	-42.2528	113.743	-28.3088	50.7169	122.457	-25.5183	81.2462	86.9973	-12.8843	72.5478	
6	0.05	53.3828	-38.2382	87.2951	30.1577	-57.7688	69.1892	15.8372	-75.3599	38.6786	13.2005	-90.2327	17.7386	45.3964	-25.7698	9.77448	28.3039	-46.3583	-10.0771	24.486	-76.1332	-18.1091	74.9949	-18.1339	-2.26932	68.4193	-21.7619	-32.738	63.948	-22.4401	-62.3262	98.4486	-37.3158	-5.90148	95.1226	-43.068	-29.8801	89.0673	-45.9615	-55.375	115.624	-55.7038	8.5876	117.322	-66.803	-18.2896	117.781	-70.8142	-44.3442	113.26	-27.5435	53.8327	122.004	-25.9986	83.8624	86.6924	-12.6474	72.715	
7	0.0583333	53.3992	-36.8567	91.4482	31.4744	-57.2134	68.5364	18.0016	-75.105	39.9001	14.4097	-89.7694	16.4551	46.9032	-20.5555	8.55017	34.014	-39.4305	-16.2496	21.8687	-63.5885	-30.7915	79.7196	-21.2832	-4.89356	73.5326	-24.1077	-35.2164	73.4043	-25.7651	-67.7991	96.8296	-45.3983	-6.6404	91.522	-55.6559	-30.3866	79.3935	-62.0301	-52.3803	113.116	-60.9715	9.44273	106.507	-74.8133	-13.1182	102.395	-87.783	-37.8667	113.043	-27.0885	49.358	124.244	-25.9751	85.3708	87.02	-10.6949	75.5877	
